<?xml version="1.0" encoding="UTF-8"?>
<!DOCTYPE svg PUBLIC "-//W3C//DTD SVG 1.1//EN" "http://www.w3.org/Graphics/SVG/1.1/DTD/svg11.dtd">
<svg xmlns="http://www.w3.org/2000/svg" version="1.1" width="500px" height="500px" style="shape-rendering:geometricPrecision; text-rendering:geometricPrecision; image-rendering:optimizeQuality; fill-rule:evenodd; clip-rule:evenodd" xmlns:xlink="http://www.w3.org/1999/xlink">
<g><path style="opacity:1" fill="#f4eed0" d="M 166.5,182.5 C 167.686,183.705 167.686,185.039 166.5,186.5C 164.315,190.213 162.648,194.213 161.5,198.5C 159.659,200.849 158.326,203.515 157.5,206.5C 155.659,208.849 154.326,211.515 153.5,214.5C 153.672,215.492 153.338,216.158 152.5,216.5C 149.665,220.164 147.332,224.164 145.5,228.5C 144.071,231.696 142.405,234.696 140.5,237.5C 137.318,244.058 135.318,251.058 134.5,258.5C 132.065,265.578 131.398,272.911 132.5,280.5C 134.038,278.757 135.038,276.757 135.5,274.5C 136.906,274.027 137.573,273.027 137.5,271.5C 137.557,270.391 137.89,269.391 138.5,268.5C 139.906,268.027 140.573,267.027 140.5,265.5C 140.992,263.181 141.992,261.181 143.5,259.5C 144.906,259.027 145.573,258.027 145.5,256.5C 147.369,254.966 148.702,252.966 149.5,250.5C 150.906,250.027 151.573,249.027 151.5,247.5C 151.833,246.5 152.5,245.833 153.5,245.5C 155.167,244.5 156.5,243.167 157.5,241.5C 159.467,241.261 161.301,241.594 163,242.5C 163.333,248.167 163.667,253.833 164,259.5C 164.278,260.416 164.778,261.082 165.5,261.5C 167.565,261.483 169.565,261.15 171.5,260.5C 173.027,260.573 174.027,259.906 174.5,258.5C 176.404,258.262 177.738,257.262 178.5,255.5C 181.833,254.167 184.167,251.833 185.5,248.5C 187.833,246.833 189.833,244.833 191.5,242.5C 194.43,241.701 197.43,241.368 200.5,241.5C 203.4,244.313 205.4,243.647 206.5,239.5C 207.906,239.027 208.573,238.027 208.5,236.5C 209.906,236.027 210.573,235.027 210.5,233.5C 214.378,227.816 216.378,228.149 216.5,234.5C 214.043,237.751 212.376,241.418 211.5,245.5C 210.069,246.78 209.402,248.447 209.5,250.5C 206.714,254.772 206.048,259.438 207.5,264.5C 208.107,264.376 208.44,264.043 208.5,263.5C 210.181,261.992 212.181,260.992 214.5,260.5C 216.749,259.92 218.415,258.587 219.5,256.5C 223.167,254.833 225.833,252.167 227.5,248.5C 227.328,247.508 227.662,246.842 228.5,246.5C 229.906,246.027 230.573,245.027 230.5,243.5C 231.5,242.167 232.5,242.167 233.5,243.5C 233.326,245.861 232.993,248.194 232.5,250.5C 228.903,257.527 227.57,264.86 228.5,272.5C 228.62,273.586 229.287,274.253 230.5,274.5C 231.416,274.457 232.083,274.124 232.5,273.5C 233.514,272.326 234.847,271.66 236.5,271.5C 242.5,267.5 247.5,262.5 251.5,256.5C 253.587,255.415 254.92,253.749 255.5,251.5C 257.895,247.298 259.895,242.965 261.5,238.5C 263.655,236.383 264.655,233.716 264.5,230.5C 264.5,230.167 264.5,229.833 264.5,229.5C 266.293,227.574 267.293,225.241 267.5,222.5C 263.298,222.183 259.298,222.517 255.5,223.5C 251.846,223.942 248.179,224.276 244.5,224.5C 243.167,223.5 243.167,222.5 244.5,221.5C 252.462,220.229 260.462,219.062 268.5,218C 269.056,217.617 269.389,217.117 269.5,216.5C 271.104,215.713 271.771,214.38 271.5,212.5C 272.326,209.515 273.659,206.849 275.5,204.5C 277.408,203.514 278.408,201.848 278.5,199.5C 278.328,198.508 278.662,197.842 279.5,197.5C 280.5,197.167 281.167,196.5 281.5,195.5C 282.5,195.5 283.5,195.5 284.5,195.5C 284.167,197.5 283.833,199.5 283.5,201.5C 281.043,204.751 279.376,208.418 278.5,212.5C 277.609,213.261 276.942,214.261 276.5,215.5C 280.649,216.809 284.649,216.809 288.5,215.5C 291.625,214.521 294.958,214.187 298.5,214.5C 304.5,214.5 310.5,214.5 316.5,214.5C 316.5,215.5 316.5,216.5 316.5,217.5C 315.432,218.434 314.099,218.768 312.5,218.5C 300.129,218.708 287.795,219.541 275.5,221C 274.244,221.417 273.577,222.25 273.5,223.5C 271.896,224.287 271.229,225.62 271.5,227.5C 269.733,229.792 268.733,232.458 268.5,235.5C 268.405,237.786 267.738,239.786 266.5,241.5C 264.528,244.084 263.528,247.084 263.5,250.5C 257.929,263.015 255.595,276.015 256.5,289.5C 256.369,290.376 256.702,291.043 257.5,291.5C 259.808,291.035 261.142,289.701 261.5,287.5C 261.833,286.5 262.5,285.833 263.5,285.5C 264.906,285.027 265.573,284.027 265.5,282.5C 267.262,281.738 268.262,280.404 268.5,278.5C 269.906,278.027 270.573,277.027 270.5,275.5C 271.906,275.027 272.573,274.027 272.5,272.5C 274.587,271.415 275.92,269.749 276.5,267.5C 277.906,267.027 278.573,266.027 278.5,264.5C 280.262,263.738 281.262,262.404 281.5,260.5C 283.262,259.738 284.262,258.404 284.5,256.5C 286.262,255.738 287.262,254.404 287.5,252.5C 289.262,251.738 290.262,250.404 290.5,248.5C 292.833,246.833 294.833,244.833 296.5,242.5C 300.47,241.021 304.303,241.355 308,243.5C 309.03,243.164 309.53,242.497 309.5,241.5C 311.262,240.738 312.262,239.404 312.5,237.5C 314.262,236.738 315.262,235.404 315.5,233.5C 316.833,232.833 317.833,231.833 318.5,230.5C 319.609,230.557 320.609,230.89 321.5,231.5C 322.573,232.251 322.74,233.251 322,234.5C 320.726,237.391 319.226,240.058 317.5,242.5C 316.069,243.78 315.402,245.447 315.5,247.5C 314.069,248.78 313.402,250.447 313.5,252.5C 313.443,253.609 313.11,254.609 312.5,255.5C 311.087,258.219 310.42,261.219 310.5,264.5C 311.791,264.737 312.791,264.404 313.5,263.5C 316.131,261.847 318.797,260.181 321.5,258.5C 324.427,257.243 326.761,255.243 328.5,252.5C 332.688,250.975 335.021,247.975 335.5,243.5C 337.834,241.824 338.834,239.491 338.5,236.5C 338.66,234.847 339.326,233.514 340.5,232.5C 341.833,232.5 343.167,232.5 344.5,232.5C 344.784,234.415 344.451,236.081 343.5,237.5C 342.069,238.78 341.402,240.447 341.5,242.5C 341.737,243.791 341.404,244.791 340.5,245.5C 339.069,246.78 338.402,248.447 338.5,250.5C 335.171,255.654 333.338,261.321 333,267.5C 334.765,264.968 336.265,262.301 337.5,259.5C 337.5,258.833 337.833,258.5 338.5,258.5C 339.906,258.027 340.573,257.027 340.5,255.5C 341.701,253.091 343.367,251.091 345.5,249.5C 348.427,248.243 350.761,246.243 352.5,243.5C 353.833,242.167 355.167,242.167 356.5,243.5C 356.427,245.027 357.094,246.027 358.5,246.5C 358.5,246.833 358.5,247.167 358.5,247.5C 358.517,249.565 358.85,251.565 359.5,253.5C 360.417,256.417 361.084,259.417 361.5,262.5C 362.053,264.552 363.053,264.885 364.5,263.5C 364.833,263.5 365.167,263.5 365.5,263.5C 367.027,263.573 368.027,262.906 368.5,261.5C 374.167,257.833 378.833,253.167 382.5,247.5C 384.5,246.167 386.167,244.5 387.5,242.5C 390.43,241.701 393.43,241.368 396.5,241.5C 399.4,244.313 401.4,243.647 402.5,239.5C 403.906,239.027 404.573,238.027 404.5,236.5C 406.262,235.738 407.262,234.404 407.5,232.5C 409.49,228.727 411.49,228.727 413.5,232.5C 413.137,233.183 412.804,233.85 412.5,234.5C 410.043,237.751 408.376,241.418 407.5,245.5C 403.488,251.222 402.155,257.555 403.5,264.5C 404.107,264.376 404.44,264.043 404.5,263.5C 407.331,261.583 410.331,259.917 413.5,258.5C 417.771,255.899 421.437,252.566 424.5,248.5C 426.027,248.427 427.027,249.094 427.5,250.5C 427.262,252.404 426.262,253.738 424.5,254.5C 422.5,255.833 420.833,257.5 419.5,259.5C 419.167,260.5 418.5,261.167 417.5,261.5C 415.973,261.427 414.973,262.094 414.5,263.5C 414.158,264.338 413.492,264.672 412.5,264.5C 409.797,266.181 407.131,267.847 404.5,269.5C 402.435,269.483 400.435,269.15 398.5,268.5C 398.248,263.615 398.581,258.781 399.5,254C 399.15,252.743 398.483,252.409 397.5,253C 395.859,254.129 394.859,255.629 394.5,257.5C 393.833,258.833 392.833,259.833 391.5,260.5C 388.5,262.833 385.833,265.5 383.5,268.5C 382.129,270.141 380.296,271.141 378,271.5C 376.358,271.022 375.191,270.022 374.5,268.5C 374.627,266.085 374.793,263.751 375,261.5C 372.937,263.734 370.771,265.734 368.5,267.5C 367.791,268.404 366.791,268.737 365.5,268.5C 363.097,268.552 360.764,268.219 358.5,267.5C 356.619,261.162 354.953,254.829 353.5,248.5C 350.074,250.92 347.408,253.92 345.5,257.5C 343.167,260.833 340.833,264.167 338.5,267.5C 337.5,267.833 336.833,268.5 336.5,269.5C 335.454,274.596 333.121,278.929 329.5,282.5C 328.167,282.5 326.833,282.5 325.5,282.5C 325.701,276.031 326.701,269.698 328.5,263.5C 328.5,263.167 328.5,262.833 328.5,262.5C 329.703,261.057 330.203,259.391 330,257.5C 327.809,258.833 325.976,260.5 324.5,262.5C 324.5,263.167 324.167,263.5 323.5,263.5C 321.973,263.427 320.973,264.094 320.5,265.5C 318.973,265.427 317.973,266.094 317.5,267.5C 316.22,268.931 314.553,269.598 312.5,269.5C 310.784,269.371 309.117,269.038 307.5,268.5C 307.5,265.167 307.5,261.833 307.5,258.5C 309.188,251.517 307.855,250.85 303.5,256.5C 300.564,261.105 296.898,265.105 292.5,268.5C 290.634,269.014 288.8,269.68 287,270.5C 285.013,269.846 283.68,268.513 283,266.5C 282.487,267.527 281.987,268.527 281.5,269.5C 280.094,269.973 279.427,270.973 279.5,272.5C 279.5,273.167 279.167,273.5 278.5,273.5C 277.094,273.973 276.427,274.973 276.5,276.5C 276.5,277.167 276.167,277.5 275.5,277.5C 274.094,277.973 273.427,278.973 273.5,280.5C 271.738,281.262 270.738,282.596 270.5,284.5C 268.413,285.585 267.08,287.251 266.5,289.5C 264.833,290.5 263.5,291.833 262.5,293.5C 261.29,293.932 260.29,294.599 259.5,295.5C 257.379,295.675 255.379,295.341 253.5,294.5C 252.034,293.653 251.2,292.32 251,290.5C 250.29,281.982 251.123,273.648 253.5,265.5C 254.621,263.684 255.121,261.684 255,259.5C 252.546,261.441 250.713,263.775 249.5,266.5C 248.5,268.167 247.167,269.5 245.5,270.5C 243.596,270.738 242.262,271.738 241.5,273.5C 241.167,274.5 240.5,275.167 239.5,275.5C 235.811,277.674 231.811,278.674 227.5,278.5C 226.833,277.167 225.833,276.167 224.5,275.5C 224.567,274.041 224.234,272.708 223.5,271.5C 223.5,270.167 223.5,268.833 223.5,267.5C 224.485,264.296 224.985,260.963 225,257.5C 223.624,258.705 222.458,260.038 221.5,261.5C 218.35,264.579 214.683,266.913 210.5,268.5C 207.833,268.5 205.167,268.5 202.5,268.5C 202.248,263.615 202.581,258.781 203.5,254C 203.15,252.743 202.483,252.409 201.5,253C 199.859,254.129 198.859,255.629 198.5,257.5C 194.073,263.264 188.74,267.931 182.5,271.5C 180.583,271.246 179.249,270.246 178.5,268.5C 178.75,265.786 178.917,263.119 179,260.5C 177.333,261.733 175.833,263.067 174.5,264.5C 173.486,265.674 172.153,266.34 170.5,266.5C 167.315,266.98 164.481,266.314 162,264.5C 160.92,258.427 160.087,252.427 159.5,246.5C 158.5,246.833 157.833,247.5 157.5,248.5C 156.833,249.833 155.833,250.833 154.5,251.5C 153.094,251.973 152.427,252.973 152.5,254.5C 151.737,256.368 150.737,258.035 149.5,259.5C 148.094,259.973 147.427,260.973 147.5,262.5C 146.674,265.485 145.341,268.151 143.5,270.5C 142.094,270.973 141.427,271.973 141.5,273.5C 141.293,276.241 140.293,278.574 138.5,280.5C 136.412,282.336 135.079,284.669 134.5,287.5C 132.653,291.001 130.32,291.335 127.5,288.5C 126.227,283.835 126.227,279.168 127.5,274.5C 128.414,271.272 128.747,267.939 128.5,264.5C 128.5,264.167 128.5,263.833 128.5,263.5C 129.933,261.086 130.433,258.419 130,255.5C 128.624,256.705 127.458,258.038 126.5,259.5C 124.858,260.803 123.191,262.136 121.5,263.5C 119.973,263.427 118.973,264.094 118.5,265.5C 118.5,266.167 118.167,266.5 117.5,266.5C 115.973,266.427 114.973,267.094 114.5,268.5C 112.973,268.427 111.973,269.094 111.5,270.5C 109.973,270.427 108.973,271.094 108.5,272.5C 107.486,273.674 106.153,274.34 104.5,274.5C 101.458,274.733 98.7916,275.733 96.5,277.5C 92.1667,278.833 87.8333,278.833 83.5,277.5C 82.7377,275.738 81.4044,274.738 79.5,274.5C 79.1667,273.833 78.8333,273.167 78.5,272.5C 78.5,268.5 78.5,264.5 78.5,260.5C 78.5,260.167 78.5,259.833 78.5,259.5C 79.9313,258.22 80.5979,256.553 80.5,254.5C 80.6596,252.847 81.3263,251.514 82.5,250.5C 84.2624,249.738 85.2624,248.404 85.5,246.5C 88.8333,243.833 91.8333,240.833 94.5,237.5C 94.8333,237.5 95.1667,237.5 95.5,237.5C 105.609,238.281 108.275,243.281 103.5,252.5C 101.882,256.016 100.215,256.183 98.5,253C 98.5699,252.235 98.9033,251.735 99.5,251.5C 101.385,249.205 101.885,246.538 101,243.5C 99.121,240.934 97.2877,240.934 95.5,243.5C 91.4351,245.233 88.7684,248.233 87.5,252.5C 87.3404,254.153 86.6737,255.486 85.5,256.5C 83.7868,257.635 83.1201,259.302 83.5,261.5C 81.615,263.795 81.115,266.462 82,269.5C 82.4224,271.426 83.5891,272.426 85.5,272.5C 88.6399,273.641 91.9733,273.808 95.5,273C 97.6526,272.901 99.3192,272.067 100.5,270.5C 102.849,268.659 105.515,267.326 108.5,266.5C 110.027,266.573 111.027,265.906 111.5,264.5C 113.404,264.262 114.738,263.262 115.5,261.5C 117.749,260.92 119.415,259.587 120.5,257.5C 122.404,257.262 123.738,256.262 124.5,254.5C 127.089,253.581 129.089,251.914 130.5,249.5C 131.289,249.217 131.956,248.717 132.5,248C 131.663,246.989 131.33,245.822 131.5,244.5C 131.328,243.508 131.662,242.842 132.5,242.5C 134.104,241.713 134.771,240.38 134.5,238.5C 136.213,237.365 136.88,235.698 136.5,233.5C 136.263,232.209 136.596,231.209 137.5,230.5C 139.397,228.302 140.397,225.636 140.5,222.5C 142.213,221.365 142.88,219.698 142.5,217.5C 143.93,213.646 145.597,209.979 147.5,206.5C 148.906,206.027 149.573,205.027 149.5,203.5C 149.992,201.181 150.992,199.181 152.5,197.5C 153.906,197.027 154.573,196.027 154.5,194.5C 155.906,194.027 156.573,193.027 156.5,191.5C 158.369,189.966 159.702,187.966 160.5,185.5C 162.053,183.615 164.053,182.615 166.5,182.5 Z M 198.5,249.5 C 196.413,250.585 195.08,252.251 194.5,254.5C 193.5,254.833 192.833,255.5 192.5,256.5C 190.5,257.833 188.833,259.5 187.5,261.5C 185.952,261.179 185.285,260.179 185.5,258.5C 188.135,254.857 190.801,251.19 193.5,247.5C 195.117,246.962 196.784,246.629 198.5,246.5C 198.5,247.5 198.5,248.5 198.5,249.5 Z M 303.5,246.5 C 303.608,248.514 302.942,250.18 301.5,251.5C 299.738,252.262 298.738,253.596 298.5,255.5C 296.167,257.167 294.167,259.167 292.5,261.5C 290.952,261.179 290.285,260.179 290.5,258.5C 291.338,258.158 291.672,257.492 291.5,256.5C 292.906,256.027 293.573,255.027 293.5,253.5C 294.906,253.027 295.573,252.027 295.5,250.5C 297.615,248.109 300.281,246.776 303.5,246.5 Z M 395.5,247.5 C 392.878,251.457 389.878,255.124 386.5,258.5C 384.833,259.5 383.5,260.833 382.5,262.5C 381.957,262.44 381.624,262.107 381.5,261.5C 382.513,258.812 383.513,256.146 384.5,253.5C 386.137,251.525 387.804,249.525 389.5,247.5C 391.549,246.359 393.549,246.359 395.5,247.5 Z"/></g>
<g><path style="opacity:0.208" fill="#747134" d="M 166.5,182.5 C 164.053,182.615 162.053,183.615 160.5,185.5C 161.336,181.809 163.336,180.809 166.5,182.5 Z"/></g>
<g><path style="opacity:1" fill="#beb57a" d="M 160.5,185.5 C 159.702,187.966 158.369,189.966 156.5,191.5C 156.845,188.802 158.178,186.802 160.5,185.5 Z"/></g>
<g><path style="opacity:0.078" fill="#8f8633" d="M 166.5,186.5 C 165.903,191.017 164.237,195.017 161.5,198.5C 162.648,194.213 164.315,190.213 166.5,186.5 Z"/></g>
<g><path style="opacity:0.278" fill="#a59c4c" d="M 156.5,191.5 C 156.573,193.027 155.906,194.027 154.5,194.5C 154.427,192.973 155.094,191.973 156.5,191.5 Z"/></g>
<g><path style="opacity:0.463" fill="#787849" d="M 284.5,195.5 C 283.5,195.5 282.5,195.5 281.5,195.5C 282.5,192.833 283.5,192.833 284.5,195.5 Z"/></g>
<g><path style="opacity:0.122" fill="#988d36" d="M 154.5,194.5 C 154.573,196.027 153.906,197.027 152.5,197.5C 152.427,195.973 153.094,194.973 154.5,194.5 Z"/></g>
<g><path style="opacity:0.263" fill="#837f3f" d="M 281.5,195.5 C 281.167,196.5 280.5,197.167 279.5,197.5C 279.5,196.167 280.167,195.5 281.5,195.5 Z"/></g>
<g><path style="opacity:0.024" fill="#706c27" d="M 284.5,195.5 C 285.794,197.68 285.461,199.68 283.5,201.5C 283.833,199.5 284.167,197.5 284.5,195.5 Z"/></g>
<g><path style="opacity:0.071" fill="#8b8123" d="M 161.5,198.5 C 161.206,201.754 159.873,204.421 157.5,206.5C 158.326,203.515 159.659,200.849 161.5,198.5 Z"/></g>
<g><path style="opacity:1" fill="#c5bb81" d="M 278.5,199.5 C 278.408,201.848 277.408,203.514 275.5,204.5C 275.75,202.326 276.75,200.659 278.5,199.5 Z"/></g>
<g><path style="opacity:0.094" fill="#988d31" d="M 149.5,203.5 C 149.573,205.027 148.906,206.027 147.5,206.5C 147.427,204.973 148.094,203.973 149.5,203.5 Z"/></g>
<g><path style="opacity:0.133" fill="#9c9136" d="M 283.5,201.5 C 282.624,205.582 280.957,209.249 278.5,212.5C 279.376,208.418 281.043,204.751 283.5,201.5 Z"/></g>
<g><path style="opacity:0.059" fill="#918626" d="M 157.5,206.5 C 157.206,209.754 155.873,212.421 153.5,214.5C 154.326,211.515 155.659,208.849 157.5,206.5 Z"/></g>
<g><path style="opacity:0.525" fill="#948e4d" d="M 316.5,217.5 C 316.5,216.5 316.5,215.5 316.5,214.5C 310.5,214.5 304.5,214.5 298.5,214.5C 304.054,213.498 309.554,212.831 315,212.5C 317.353,213.818 317.853,215.485 316.5,217.5 Z"/></g>
<g><path style="opacity:0.192" fill="#ab9d34" d="M 271.5,212.5 C 271.771,214.38 271.104,215.713 269.5,216.5C 269.66,214.847 270.326,213.514 271.5,212.5 Z"/></g>
<g><path style="opacity:0.047" fill="#a59731" d="M 278.5,212.5 C 278.5,213.5 278.5,214.5 278.5,215.5C 281.833,215.5 285.167,215.5 288.5,215.5C 284.649,216.809 280.649,216.809 276.5,215.5C 276.942,214.261 277.609,213.261 278.5,212.5 Z"/></g>
<g><path style="opacity:0.549" fill="#a89e53" d="M 269.5,216.5 C 269.389,217.117 269.056,217.617 268.5,218C 260.462,219.062 252.462,220.229 244.5,221.5C 244.611,220.883 244.944,220.383 245.5,220C 253.52,218.878 261.52,217.711 269.5,216.5 Z"/></g>
<g><path style="opacity:0.116" fill="#968c34" d="M 312.5,218.5 C 299.547,219.863 286.547,221.529 273.5,223.5C 273.577,222.25 274.244,221.417 275.5,221C 287.795,219.541 300.129,218.708 312.5,218.5 Z"/></g>
<g><path style="opacity:1" fill="#baaf67" d="M 142.5,217.5 C 142.88,219.698 142.213,221.365 140.5,222.5C 140.402,220.447 141.069,218.78 142.5,217.5 Z"/></g>
<g><path style="opacity:0.043" fill="#988c2d" d="M 152.5,216.5 C 151.172,221.165 148.839,225.165 145.5,228.5C 147.332,224.164 149.665,220.164 152.5,216.5 Z"/></g>
<g><path style="opacity:0.047" fill="#7d7623" d="M 255.5,223.5 C 256.5,223.5 257.5,223.5 258.5,223.5C 253.897,225.328 249.231,225.661 244.5,224.5C 248.179,224.276 251.846,223.942 255.5,223.5 Z"/></g>
<g><path style="opacity:0.122" fill="#afa03b" d="M 255.5,223.5 C 259.298,222.517 263.298,222.183 267.5,222.5C 267.293,225.241 266.293,227.574 264.5,229.5C 264.833,227.5 265.167,225.5 265.5,223.5C 263.167,223.5 260.833,223.5 258.5,223.5C 257.5,223.5 256.5,223.5 255.5,223.5 Z"/></g>
<g><path style="opacity:0.18" fill="#ab9d37" d="M 273.5,223.5 C 273.34,225.153 272.674,226.486 271.5,227.5C 271.229,225.62 271.896,224.287 273.5,223.5 Z"/></g>
<g><path style="opacity:1" fill="#b9ad67" d="M 140.5,222.5 C 140.397,225.636 139.397,228.302 137.5,230.5C 137.733,227.458 138.733,224.792 140.5,222.5 Z"/></g>
<g><path style="opacity:0.141" fill="#7e7a37" d="M 318.5,230.5 C 319.947,229.115 320.947,229.448 321.5,231.5C 320.609,230.89 319.609,230.557 318.5,230.5 Z"/></g>
<g><path style="opacity:0.4" fill="#76743b" d="M 344.5,232.5 C 343.167,232.5 341.833,232.5 340.5,232.5C 341.833,229.833 343.167,229.833 344.5,232.5 Z"/></g>
<g><path style="opacity:1" fill="#ddd7b6" d="M 237.5,231.5 C 237.5,233.167 237.5,234.833 237.5,236.5C 235.833,236.5 234.167,236.5 232.5,236.5C 231.212,234.965 231.212,233.299 232.5,231.5C 234.316,230.265 235.983,230.265 237.5,231.5 Z"/></g>
<g><path style="opacity:0.298" fill="#a69d51" d="M 318.5,230.5 C 317.833,231.833 316.833,232.833 315.5,233.5C 315.5,231.5 316.5,230.5 318.5,230.5 Z"/></g>
<g><path style="opacity:0.122" fill="#a39739" d="M 271.5,227.5 C 271.267,230.542 270.267,233.208 268.5,235.5C 268.733,232.458 269.733,229.792 271.5,227.5 Z"/></g>
<g><path style="opacity:0.357" fill="#8c8849" d="M 237.5,231.5 C 240.167,233.167 240.167,234.833 237.5,236.5C 237.5,234.833 237.5,233.167 237.5,231.5 Z"/></g>
<g><path style="opacity:0.482" fill="#a9a058" d="M 407.5,232.5 C 407.262,234.404 406.262,235.738 404.5,236.5C 404.738,234.596 405.738,233.262 407.5,232.5 Z"/></g>
<g><path style="opacity:0.235" fill="#a49940" d="M 210.5,233.5 C 210.573,235.027 209.906,236.027 208.5,236.5C 208.427,234.973 209.094,233.973 210.5,233.5 Z"/></g>
<g><path style="opacity:0.439" fill="#b5a954" d="M 315.5,233.5 C 315.262,235.404 314.262,236.738 312.5,237.5C 312.738,235.596 313.738,234.262 315.5,233.5 Z"/></g>
<g><path style="opacity:0.843" fill="#b1a65d" d="M 136.5,233.5 C 136.88,235.698 136.213,237.365 134.5,238.5C 134.402,236.447 135.069,234.78 136.5,233.5 Z"/></g>
<g><path style="opacity:0.761" fill="#a7a269" d="M 232.5,236.5 C 234.167,236.5 235.833,236.5 237.5,236.5C 235.714,238.922 234.048,238.922 232.5,236.5 Z"/></g>
<g><path style="opacity:0.992" fill="#c6bb7a" d="M 264.5,230.5 C 264.655,233.716 263.655,236.383 261.5,238.5C 261.733,235.458 262.733,232.792 264.5,230.5 Z"/></g>
<g><path style="opacity:0.373" fill="#b6aa52" d="M 208.5,236.5 C 208.573,238.027 207.906,239.027 206.5,239.5C 206.427,237.973 207.094,236.973 208.5,236.5 Z"/></g>
<g><path style="opacity:0.361" fill="#b0a452" d="M 404.5,236.5 C 404.573,238.027 403.906,239.027 402.5,239.5C 402.427,237.973 403.094,236.973 404.5,236.5 Z"/></g>
<g><path style="opacity:0.404" fill="#baac4b" d="M 312.5,237.5 C 312.262,239.404 311.262,240.738 309.5,241.5C 309.738,239.596 310.738,238.262 312.5,237.5 Z"/></g>
<g><path style="opacity:0.539" fill="#a89e4e" d="M 200.5,241.5 C 197.43,241.368 194.43,241.701 191.5,242.5C 194.265,239.261 197.265,238.928 200.5,241.5 Z"/></g>
<g><path style="opacity:0.2" fill="#9f943c" d="M 343.5,237.5 C 343.598,239.553 342.931,241.22 341.5,242.5C 341.402,240.447 342.069,238.78 343.5,237.5 Z"/></g>
<g><path style="opacity:0.514" fill="#a2994e" d="M 396.5,241.5 C 393.43,241.368 390.43,241.701 387.5,242.5C 390.265,239.261 393.265,238.928 396.5,241.5 Z"/></g>
<g><path style="opacity:0.173" fill="#9e9236" d="M 134.5,238.5 C 134.771,240.38 134.104,241.713 132.5,242.5C 132.66,240.847 133.326,239.514 134.5,238.5 Z"/></g>
<g><path style="opacity:0.039" fill="#bdad49" d="M 206.5,239.5 C 205.4,243.647 203.4,244.313 200.5,241.5C 201.496,241.414 202.329,241.748 203,242.5C 204.039,241.29 205.206,240.29 206.5,239.5 Z"/></g>
<g><path style="opacity:0.094" fill="#a09330" d="M 216.5,234.5 C 215.624,238.582 213.957,242.249 211.5,245.5C 212.376,241.418 214.043,237.751 216.5,234.5 Z"/></g>
<g><path style="opacity:0.027" fill="#b5a745" d="M 309.5,241.5 C 309.53,242.497 309.03,243.164 308,243.5C 304.303,241.355 300.47,241.021 296.5,242.5C 299.972,239.256 303.805,239.256 308,242.5C 308.383,241.944 308.883,241.611 309.5,241.5 Z"/></g>
<g><path style="opacity:0.988" fill="#cbbf83" d="M 338.5,236.5 C 338.834,239.491 337.834,241.824 335.5,243.5C 335.707,240.759 336.707,238.426 338.5,236.5 Z"/></g>
<g><path style="opacity:0.035" fill="#b8a949" d="M 402.5,239.5 C 401.4,243.647 399.4,244.313 396.5,241.5C 397.496,241.414 398.329,241.748 399,242.5C 400.039,241.29 401.206,240.29 402.5,239.5 Z"/></g>
<g><path style="opacity:0.059" fill="#958a2f" d="M 412.5,234.5 C 411.624,238.582 409.957,242.249 407.5,245.5C 408.376,241.418 410.043,237.751 412.5,234.5 Z"/></g>
<g><path style="opacity:0.651" fill="#a19958" d="M 94.5,237.5 C 91.8333,240.833 88.8333,243.833 85.5,246.5C 87.5,242.5 90.5,239.5 94.5,237.5 Z"/></g>
<g><path style="opacity:0.235" fill="#978c2f" d="M 99.5,251.5 C 100.167,249.181 100.334,246.847 100,244.5C 98.6439,243.62 97.1439,243.286 95.5,243.5C 97.2877,240.934 99.121,240.934 101,243.5C 101.885,246.538 101.385,249.205 99.5,251.5 Z"/></g>
<g><path style="opacity:0.373" fill="#a89d48" d="M 157.5,241.5 C 156.5,243.167 155.167,244.5 153.5,245.5C 153.833,243.167 155.167,241.833 157.5,241.5 Z"/></g>
<g><path style="opacity:0.678" fill="#b4aa62" d="M 165.5,261.5 C 164.778,261.082 164.278,260.416 164,259.5C 163.667,253.833 163.333,248.167 163,242.5C 161.301,241.594 159.467,241.261 157.5,241.5C 160.7,238.591 163.2,239.258 165,243.5C 164.483,249.473 164.65,255.473 165.5,261.5 Z"/></g>
<g><path style="opacity:0.345" fill="#afa34b" d="M 266.5,241.5 C 266.072,244.785 265.072,247.785 263.5,250.5C 263.528,247.084 264.528,244.084 266.5,241.5 Z"/></g>
<g><path style="opacity:0.376" fill="#a3983f" d="M 191.5,242.5 C 189.833,244.833 187.833,246.833 185.5,248.5C 186.5,245.5 188.5,243.5 191.5,242.5 Z"/></g>
<g><path style="opacity:0.176" fill="#bdaa32" d="M 198.5,249.5 C 198.5,248.5 198.5,247.5 198.5,246.5C 196.784,246.629 195.117,246.962 193.5,247.5C 194.99,245.72 196.99,245.054 199.5,245.5C 199.768,247.099 199.434,248.432 198.5,249.5 Z"/></g>
<g><path style="opacity:0.478" fill="#b6ae6c" d="M 230.5,243.5 C 230.573,245.027 229.906,246.027 228.5,246.5C 228.427,244.973 229.094,243.973 230.5,243.5 Z"/></g>
<g><path style="opacity:0.592" fill="#b7ab5b" d="M 296.5,242.5 C 294.833,244.833 292.833,246.833 290.5,248.5C 291.5,245.5 293.5,243.5 296.5,242.5 Z"/></g>
<g><path style="opacity:0.086" fill="#ac9d2f" d="M 317.5,242.5 C 317.598,244.553 316.931,246.22 315.5,247.5C 315.402,245.447 316.069,243.78 317.5,242.5 Z"/></g>
<g><path style="opacity:0.416" fill="#a79e57" d="M 356.5,243.5 C 357.906,243.973 358.573,244.973 358.5,246.5C 357.094,246.027 356.427,245.027 356.5,243.5 Z"/></g>
<g><path style="opacity:0.357" fill="#a19744" d="M 387.5,242.5 C 386.167,244.5 384.5,246.167 382.5,247.5C 383.167,244.833 384.833,243.167 387.5,242.5 Z"/></g>
<g><path style="opacity:0.153" fill="#b8a733" d="M 395.5,247.5 C 393.549,246.359 391.549,246.359 389.5,247.5C 390.134,246.053 391.301,245.387 393,245.5C 394.376,245.684 395.209,246.351 395.5,247.5 Z"/></g>
<g><path style="opacity:0.096" fill="#7a7426" d="M 95.5,237.5 C 104.575,236.089 108.075,240.089 106,249.5C 105.623,250.942 104.79,251.942 103.5,252.5C 108.275,243.281 105.609,238.281 95.5,237.5 Z"/></g>
<g><path style="opacity:0.022" fill="#908731" d="M 233.5,243.5 C 234.867,246.012 234.534,248.345 232.5,250.5C 232.993,248.194 233.326,245.861 233.5,243.5 Z"/></g>
<g><path style="opacity:0.949" fill="#cdc388" d="M 352.5,243.5 C 350.761,246.243 348.427,248.243 345.5,249.5C 347.239,246.757 349.573,244.757 352.5,243.5 Z"/></g>
<g><path style="opacity:0.078" fill="#968c3d" d="M 95.5,243.5 C 92.8046,246.526 90.1379,249.526 87.5,252.5C 88.7684,248.233 91.4351,245.233 95.5,243.5 Z"/></g>
<g><path style="opacity:0.039" fill="#9e9024" d="M 131.5,244.5 C 131.33,245.822 131.663,246.989 132.5,248C 131.956,248.717 131.289,249.217 130.5,249.5C 130.216,247.585 130.549,245.919 131.5,244.5 Z"/></g>
<g><path style="opacity:0.173" fill="#ac9f43" d="M 140.5,237.5 C 138.869,244.711 136.869,251.711 134.5,258.5C 135.318,251.058 137.318,244.058 140.5,237.5 Z"/></g>
<g><path style="opacity:0.082" fill="#595a29" d="M 424.5,248.5 C 425.251,247.427 426.251,247.26 427.5,248C 428.774,248.977 428.774,249.811 427.5,250.5C 427.027,249.094 426.027,248.427 424.5,248.5 Z"/></g>
<g><path style="opacity:0.298" fill="#8d863c" d="M 85.5,246.5 C 85.2624,248.404 84.2624,249.738 82.5,250.5C 82.7376,248.596 83.7376,247.262 85.5,246.5 Z"/></g>
<g><path style="opacity:0.133" fill="#ad9e33" d="M 211.5,245.5 C 211.598,247.553 210.931,249.22 209.5,250.5C 209.402,248.447 210.069,246.78 211.5,245.5 Z"/></g>
<g><path style="opacity:0.039" fill="#b8a83c" d="M 303.5,246.5 C 300.281,246.776 297.615,248.109 295.5,250.5C 296.97,246.431 299.637,245.097 303.5,246.5 Z"/></g>
<g><path style="opacity:0.161" fill="#aa9c36" d="M 340.5,245.5 C 340.598,247.553 339.931,249.22 338.5,250.5C 338.402,248.447 339.069,246.78 340.5,245.5 Z"/></g>
<g><path style="opacity:0.341" fill="#afa452" d="M 151.5,247.5 C 151.573,249.027 150.906,250.027 149.5,250.5C 149.427,248.973 150.094,247.973 151.5,247.5 Z"/></g>
<g><path style="opacity:0.635" fill="#bbad52" d="M 335.5,243.5 C 335.021,247.975 332.688,250.975 328.5,252.5C 331.246,249.762 333.58,246.762 335.5,243.5 Z"/></g>
<g><path style="opacity:0.278" fill="#b2a549" d="M 185.5,248.5 C 184.167,251.833 181.833,254.167 178.5,255.5C 180.5,252.833 182.833,250.5 185.5,248.5 Z"/></g>
<g><path style="opacity:0.424" fill="#b8ab55" d="M 290.5,248.5 C 290.262,250.404 289.262,251.738 287.5,252.5C 287.738,250.596 288.738,249.262 290.5,248.5 Z"/></g>
<g><path style="opacity:0.102" fill="#b0a030" d="M 315.5,247.5 C 315.598,249.553 314.931,251.22 313.5,252.5C 313.402,250.447 314.069,248.78 315.5,247.5 Z"/></g>
<g><path style="opacity:0.022" fill="#9d913a" d="M 358.5,247.5 C 360.461,249.32 360.794,251.32 359.5,253.5C 358.85,251.565 358.517,249.565 358.5,247.5 Z"/></g>
<g><path style="opacity:0.043" fill="#a69833" d="M 407.5,245.5 C 406.63,249.577 405.463,253.577 404,257.5C 403.211,259.712 403.378,261.712 404.5,263.5C 404.44,264.043 404.107,264.376 403.5,264.5C 402.155,257.555 403.488,251.222 407.5,245.5 Z"/></g>
<g><path style="opacity:0.71" fill="#bfb364" d="M 130.5,249.5 C 129.089,251.914 127.089,253.581 124.5,254.5C 125.911,252.086 127.911,250.419 130.5,249.5 Z"/></g>
<g><path style="opacity:0.004" fill="#a79b3c" d="M 154.5,251.5 C 154.573,253.027 153.906,254.027 152.5,254.5C 152.427,252.973 153.094,251.973 154.5,251.5 Z"/></g>
<g><path style="opacity:0.533" fill="#c4b661" d="M 198.5,249.5 C 197.92,251.749 196.587,253.415 194.5,254.5C 195.08,252.251 196.413,250.585 198.5,249.5 Z"/></g>
<g><path style="opacity:0.718" fill="#cabd72" d="M 227.5,248.5 C 225.833,252.167 223.167,254.833 219.5,256.5C 221.833,253.5 224.5,250.833 227.5,248.5 Z"/></g>
<g><path style="opacity:0.8" fill="#c9bc6c" d="M 301.5,251.5 C 301.262,253.404 300.262,254.738 298.5,255.5C 298.738,253.596 299.738,252.262 301.5,251.5 Z"/></g>
<g><path style="opacity:0.027" fill="#9d8d16" d="M 159.5,246.5 C 159.5,250.167 159.5,253.833 159.5,257.5C 158.833,254.5 158.167,251.5 157.5,248.5C 157.833,247.5 158.5,246.833 159.5,246.5 Z"/></g>
<g><path style="opacity:0.349" fill="#b6a741" d="M 209.5,250.5 C 208.837,253.821 208.17,257.154 207.5,260.5C 207.52,261.726 207.853,262.726 208.5,263.5C 208.44,264.043 208.107,264.376 207.5,264.5C 206.048,259.438 206.714,254.772 209.5,250.5 Z"/></g>
<g><path style="opacity:0.004" fill="#a99c3a" d="M 232.5,250.5 C 230.53,257.715 229.197,265.048 228.5,272.5C 227.57,264.86 228.903,257.527 232.5,250.5 Z"/></g>
<g><path style="opacity:0.78" fill="#bfb260" d="M 287.5,252.5 C 287.262,254.404 286.262,255.738 284.5,256.5C 284.738,254.596 285.738,253.262 287.5,252.5 Z"/></g>
<g><path style="opacity:0.086" fill="#bbaa3b" d="M 202.5,268.5 C 201.467,267.088 200.801,265.422 200.5,263.5C 201.44,260.868 201.607,258.202 201,255.5C 200.292,256.381 199.458,257.047 198.5,257.5C 198.859,255.629 199.859,254.129 201.5,253C 202.483,252.409 203.15,252.743 203.5,254C 202.581,258.781 202.248,263.615 202.5,268.5 Z"/></g>
<g><path style="opacity:0.02" fill="#ae9f2e" d="M 293.5,253.5 C 293.573,255.027 292.906,256.027 291.5,256.5C 291.427,254.973 292.094,253.973 293.5,253.5 Z"/></g>
<g><path style="opacity:0.067" fill="#c1ac25" d="M 307.5,258.5 C 307.167,258.5 306.833,258.5 306.5,258.5C 306.649,257.448 306.483,256.448 306,255.5C 305.329,256.252 304.496,256.586 303.5,256.5C 307.855,250.85 309.188,251.517 307.5,258.5 Z"/></g>
<g><path style="opacity:0.553" fill="#b9af63" d="M 124.5,254.5 C 123.738,256.262 122.404,257.262 120.5,257.5C 121.262,255.738 122.596,254.738 124.5,254.5 Z"/></g>
<g><path style="opacity:1" fill="#cdc385" d="M 149.5,250.5 C 148.702,252.966 147.369,254.966 145.5,256.5C 145.845,253.802 147.178,251.802 149.5,250.5 Z"/></g>
<g><path style="opacity:0.294" fill="#b9ac54" d="M 255.5,251.5 C 254.92,253.749 253.587,255.415 251.5,256.5C 252.08,254.251 253.413,252.585 255.5,251.5 Z"/></g>
<g><path style="opacity:0.443" fill="#b9ab4d" d="M 328.5,252.5 C 326.761,255.243 324.427,257.243 321.5,258.5C 323.239,255.757 325.573,253.757 328.5,252.5 Z"/></g>
<g><path style="opacity:0.098" fill="#b7a63b" d="M 398.5,268.5 C 397.834,264.647 397.167,260.647 396.5,256.5C 395.817,256.863 395.15,257.196 394.5,257.5C 394.859,255.629 395.859,254.129 397.5,253C 398.483,252.409 399.15,252.743 399.5,254C 398.581,258.781 398.248,263.615 398.5,268.5 Z"/></g>
<g><path style="opacity:0.949" fill="#c2bb86" d="M 424.5,248.5 C 421.437,252.566 417.771,255.899 413.5,258.5C 416.563,254.434 420.229,251.101 424.5,248.5 Z"/></g>
<g><path style="opacity:0.443" fill="#b8aa53" d="M 178.5,255.5 C 177.738,257.262 176.404,258.262 174.5,258.5C 175.262,256.738 176.596,255.738 178.5,255.5 Z"/></g>
<g><path style="opacity:0.016" fill="#b6a42a" d="M 384.5,253.5 C 383.513,256.146 382.513,258.812 381.5,261.5C 381.624,262.107 381.957,262.44 382.5,262.5C 381.632,264.625 380.632,264.791 379.5,263C 380.282,259.265 381.949,256.098 384.5,253.5 Z"/></g>
<g><path style="opacity:0.027" fill="#787222" d="M 80.5,254.5 C 80.5979,256.553 79.9313,258.22 78.5,259.5C 78.4021,257.447 79.0687,255.78 80.5,254.5 Z"/></g>
<g><path style="opacity:0.565" fill="#cebe68" d="M 340.5,255.5 C 340.573,257.027 339.906,258.027 338.5,258.5C 338.427,256.973 339.094,255.973 340.5,255.5 Z"/></g>
<g><path style="opacity:0.839" fill="#c9bd79" d="M 382.5,247.5 C 378.833,253.167 374.167,257.833 368.5,261.5C 372.833,256.5 377.5,251.833 382.5,247.5 Z"/></g>
<g><path style="opacity:0.349" fill="#9b9246" d="M 85.5,256.5 C 85.2041,258.403 84.5375,260.07 83.5,261.5C 83.1201,259.302 83.7868,257.635 85.5,256.5 Z"/></g>
<g><path style="opacity:0.235" fill="#ac9f48" d="M 145.5,256.5 C 145.573,258.027 144.906,259.027 143.5,259.5C 143.427,257.973 144.094,256.973 145.5,256.5 Z"/></g>
<g><path style="opacity:0.592" fill="#c5b867" d="M 284.5,256.5 C 284.262,258.404 283.262,259.738 281.5,260.5C 281.738,258.596 282.738,257.262 284.5,256.5 Z"/></g>
<g><path style="opacity:0.012" fill="#7f7829" d="M 424.5,254.5 C 423.833,257.167 422.167,258.833 419.5,259.5C 420.833,257.5 422.5,255.833 424.5,254.5 Z"/></g>
<g><path style="opacity:0.592" fill="#b8ad5d" d="M 174.5,258.5 C 174.027,259.906 173.027,260.573 171.5,260.5C 171.973,259.094 172.973,258.427 174.5,258.5 Z"/></g>
<g><path style="opacity:0.78" fill="#cec075" d="M 192.5,256.5 C 191.581,259.089 189.914,261.089 187.5,262.5C 187.5,262.167 187.5,261.833 187.5,261.5C 188.833,259.5 190.5,257.833 192.5,256.5 Z"/></g>
<g><path style="opacity:0.847" fill="#c8bc73" d="M 219.5,256.5 C 218.415,258.587 216.749,259.92 214.5,260.5C 215.585,258.413 217.251,257.08 219.5,256.5 Z"/></g>
<g><path style="opacity:0.769" fill="#b9ae64" d="M 120.5,257.5 C 119.415,259.587 117.749,260.92 115.5,261.5C 116.585,259.413 118.251,258.08 120.5,257.5 Z"/></g>
<g><path style="opacity:0.09" fill="#b09f23" d="M 128.5,263.5 C 128.843,261.517 128.176,260.183 126.5,259.5C 127.458,258.038 128.624,256.705 130,255.5C 130.433,258.419 129.933,261.086 128.5,263.5 Z"/></g>
<g><path style="opacity:0.012" fill="#9d9233" d="M 149.5,259.5 C 149.573,261.027 148.906,262.027 147.5,262.5C 147.427,260.973 148.094,259.973 149.5,259.5 Z"/></g>
<g><path style="opacity:0.103" fill="#c4af2c" d="M 185.5,258.5 C 185.285,260.179 185.952,261.179 187.5,261.5C 187.5,261.833 187.5,262.167 187.5,262.5C 186.518,263.141 185.518,263.807 184.5,264.5C 183.561,262.308 183.895,260.308 185.5,258.5 Z"/></g>
<g><path style="opacity:0.051" fill="#c0ae40" d="M 223.5,267.5 C 222.392,266.177 222.392,264.677 223.5,263C 223.164,261.97 222.497,261.47 221.5,261.5C 222.458,260.038 223.624,258.705 225,257.5C 224.985,260.963 224.485,264.296 223.5,267.5 Z"/></g>
<g><path style="opacity:0.076" fill="#c5b02f" d="M 338.5,250.5 C 338.145,253.067 337.479,255.567 336.5,258C 336.57,258.765 336.903,259.265 337.5,259.5C 336.265,262.301 334.765,264.968 333,267.5C 333.338,261.321 335.171,255.654 338.5,250.5 Z"/></g>
<g><path style="opacity:0.796" fill="#cec072" d="M 386.5,258.5 C 386.167,260.833 384.833,262.167 382.5,262.5C 383.5,260.833 384.833,259.5 386.5,258.5 Z"/></g>
<g><path style="opacity:0.016" fill="#c1ae32" d="M 328.5,262.5 C 328.631,261.761 328.464,261.094 328,260.5C 327.184,261.823 326.017,262.489 324.5,262.5C 325.976,260.5 327.809,258.833 330,257.5C 330.203,259.391 329.703,261.057 328.5,262.5 Z"/></g>
<g><path style="opacity:0.376" fill="#a89d49" d="M 115.5,261.5 C 114.738,263.262 113.404,264.262 111.5,264.5C 112.262,262.738 113.596,261.738 115.5,261.5 Z"/></g>
<g><path style="opacity:0.098" fill="#c0ad2f" d="M 253.5,265.5 C 253.631,264.761 253.464,264.094 253,263.5C 251.961,264.71 250.794,265.71 249.5,266.5C 250.713,263.775 252.546,261.441 255,259.5C 255.121,261.684 254.621,263.684 253.5,265.5 Z"/></g>
<g><path style="opacity:0.522" fill="#bfb35e" d="M 281.5,260.5 C 281.262,262.404 280.262,263.738 278.5,264.5C 278.738,262.596 279.738,261.262 281.5,260.5 Z"/></g>
<g><path style="opacity:0.071" fill="#c8b331" d="M 290.5,258.5 C 290.285,260.179 290.952,261.179 292.5,261.5C 291.321,264.476 289.987,264.809 288.5,262.5C 288.668,260.829 289.335,259.496 290.5,258.5 Z"/></g>
<g><path style="opacity:0.094" fill="#bfad40" d="M 312.5,255.5 C 312.194,258.385 312.527,261.052 313.5,263.5C 312.791,264.404 311.791,264.737 310.5,264.5C 310.42,261.219 311.087,258.219 312.5,255.5 Z"/></g>
<g><path style="opacity:0.027" fill="#a19538" d="M 358.5,267.5 C 357.21,266.942 356.377,265.942 356,264.5C 355.161,259.773 354.161,255.106 353,250.5C 350.63,253.039 348.13,255.372 345.5,257.5C 347.408,253.92 350.074,250.92 353.5,248.5C 354.953,254.829 356.619,261.162 358.5,267.5 Z"/></g>
<g><path style="opacity:0.62" fill="#beb264" d="M 368.5,261.5 C 368.027,262.906 367.027,263.573 365.5,263.5C 365.973,262.094 366.973,261.427 368.5,261.5 Z"/></g>
<g><path style="opacity:0.027" fill="#88802f" d="M 417.5,261.5 C 417.027,262.906 416.027,263.573 414.5,263.5C 414.973,262.094 415.973,261.427 417.5,261.5 Z"/></g>
<g><path style="opacity:0.22" fill="#b1a75f" d="M 159.5,246.5 C 160.087,252.427 160.92,258.427 162,264.5C 164.481,266.314 167.315,266.98 170.5,266.5C 166.057,269.511 162.557,268.511 160,263.5C 159.505,261.527 159.338,259.527 159.5,257.5C 159.5,253.833 159.5,250.167 159.5,246.5 Z"/></g>
<g><path style="opacity:0.133" fill="#ae9d25" d="M 178.5,268.5 C 177.566,267.432 177.232,266.099 177.5,264.5C 176.5,264.5 175.5,264.5 174.5,264.5C 175.833,263.067 177.333,261.733 179,260.5C 178.917,263.119 178.75,265.786 178.5,268.5 Z"/></g>
<g><path style="opacity:0.816" fill="#c2b76f" d="M 306.5,258.5 C 306.833,258.5 307.167,258.5 307.5,258.5C 307.5,261.833 307.5,265.167 307.5,268.5C 305.224,265.476 304.891,262.143 306.5,258.5 Z"/></g>
<g><path style="opacity:0.145" fill="#b1a237" d="M 361.5,262.5 C 362.391,263.11 363.391,263.443 364.5,263.5C 363.053,264.885 362.053,264.552 361.5,262.5 Z"/></g>
<g><path style="opacity:0.012" fill="#9b9034" d="M 121.5,263.5 C 121.027,264.906 120.027,265.573 118.5,265.5C 118.973,264.094 119.973,263.427 121.5,263.5 Z"/></g>
<g><path style="opacity:0.024" fill="#a89933" d="M 323.5,263.5 C 323.027,264.906 322.027,265.573 320.5,265.5C 320.973,264.094 321.973,263.427 323.5,263.5 Z"/></g>
<g><path style="opacity:0.09" fill="#a59520" d="M 374.5,268.5 C 373.732,267.737 373.232,266.737 373,265.5C 371.67,266.582 370.17,267.249 368.5,267.5C 370.771,265.734 372.937,263.734 375,261.5C 374.793,263.751 374.627,266.085 374.5,268.5 Z"/></g>
<g><path style="opacity:0.641" fill="#9c9657" d="M 78.5,260.5 C 78.5,264.5 78.5,268.5 78.5,272.5C 75.8333,268.5 75.8333,264.5 78.5,260.5 Z"/></g>
<g><path style="opacity:0.639" fill="#b2a85e" d="M 111.5,264.5 C 111.027,265.906 110.027,266.573 108.5,266.5C 108.973,265.094 109.973,264.427 111.5,264.5 Z"/></g>
<g><path style="opacity:0.008" fill="#94882b" d="M 391.5,260.5 C 389.833,264.167 387.167,266.833 383.5,268.5C 385.833,265.5 388.5,262.833 391.5,260.5 Z"/></g>
<g><path style="opacity:0.004" fill="#8a812f" d="M 412.5,264.5 C 410.915,267.639 408.248,269.306 404.5,269.5C 407.131,267.847 409.797,266.181 412.5,264.5 Z"/></g>
<g><path style="opacity:0.459" fill="#aaa058" d="M 83.5,261.5 C 81.6639,265.649 82.3306,269.315 85.5,272.5C 83.5891,272.426 82.4224,271.426 82,269.5C 81.115,266.462 81.615,263.795 83.5,261.5 Z"/></g>
<g><path style="opacity:0.416" fill="#b9ad5b" d="M 278.5,264.5 C 278.573,266.027 277.906,267.027 276.5,267.5C 276.427,265.973 277.094,264.973 278.5,264.5 Z"/></g>
<g><path style="opacity:0.016" fill="#a39734" d="M 320.5,265.5 C 320.027,266.906 319.027,267.573 317.5,267.5C 317.973,266.094 318.973,265.427 320.5,265.5 Z"/></g>
<g><path style="opacity:0.012" fill="#958a2f" d="M 117.5,266.5 C 117.027,267.906 116.027,268.573 114.5,268.5C 114.973,267.094 115.973,266.427 117.5,266.5 Z"/></g>
<g><path style="opacity:0.208" fill="#aea24a" d="M 140.5,265.5 C 140.573,267.027 139.906,268.027 138.5,268.5C 138.427,266.973 139.094,265.973 140.5,265.5 Z"/></g>
<g><path style="opacity:0.502" fill="#b8ac5b" d="M 251.5,256.5 C 247.5,262.5 242.5,267.5 236.5,271.5C 241.167,266.167 246.167,261.167 251.5,256.5 Z"/></g>
<g><path style="opacity:0.776" fill="#b1a760" d="M 202.5,268.5 C 205.167,268.5 207.833,268.5 210.5,268.5C 207.833,271.167 205.167,271.167 202.5,268.5 Z"/></g>
<g><path style="opacity:0.016" fill="#a49735" d="M 338.5,267.5 C 338.5,268.833 337.833,269.5 336.5,269.5C 336.833,268.5 337.5,267.833 338.5,267.5 Z"/></g>
<g><path style="opacity:0.424" fill="#9d9449" d="M 358.5,267.5 C 360.764,268.219 363.097,268.552 365.5,268.5C 362.905,271.067 360.572,270.734 358.5,267.5 Z"/></g>
<g><path style="opacity:0.024" fill="#968b34" d="M 114.5,268.5 C 114.027,269.906 113.027,270.573 111.5,270.5C 111.973,269.094 112.973,268.427 114.5,268.5 Z"/></g>
<g><path style="opacity:0.047" fill="#918730" d="M 307.5,268.5 C 309.117,269.038 310.784,269.371 312.5,269.5C 310.545,270.93 308.879,270.597 307.5,268.5 Z"/></g>
<g><path style="opacity:0.027" fill="#7d772a" d="M 398.5,268.5 C 400.435,269.15 402.435,269.483 404.5,269.5C 403.903,270.139 403.07,270.472 402,270.5C 400.301,270.613 399.134,269.947 398.5,268.5 Z"/></g>
<g><path style="opacity:0.012" fill="#a59830" d="M 281.5,269.5 C 281.573,271.027 280.906,272.027 279.5,272.5C 279.427,270.973 280.094,269.973 281.5,269.5 Z"/></g>
<g><path style="opacity:0.016" fill="#9e912e" d="M 292.5,268.5 C 291.232,270.387 289.399,271.387 287,271.5C 285.061,271.046 283.228,270.379 281.5,269.5C 281.987,268.527 282.487,267.527 283,266.5C 283.68,268.513 285.013,269.846 287,270.5C 288.8,269.68 290.634,269.014 292.5,268.5 Z"/></g>
<g><path style="opacity:0.016" fill="#8e862d" d="M 111.5,270.5 C 111.027,271.906 110.027,272.573 108.5,272.5C 108.973,271.094 109.973,270.427 111.5,270.5 Z"/></g>
<g><path style="opacity:0.027" fill="#a3973d" d="M 245.5,270.5 C 244.738,272.262 243.404,273.262 241.5,273.5C 242.262,271.738 243.596,270.738 245.5,270.5 Z"/></g>
<g><path style="opacity:0.106" fill="#a89c41" d="M 276.5,267.5 C 275.92,269.749 274.587,271.415 272.5,272.5C 273.08,270.251 274.413,268.585 276.5,267.5 Z"/></g>
<g><path style="opacity:0.525" fill="#9f964b" d="M 100.5,270.5 C 99.3192,272.067 97.6526,272.901 95.5,273C 91.9733,273.808 88.6399,273.641 85.5,272.5C 90.6354,272.708 95.6354,272.041 100.5,270.5 Z"/></g>
<g><path style="opacity:0.745" fill="#aea253" d="M 128.5,264.5 C 128.747,267.939 128.414,271.272 127.5,274.5C 126.903,274.265 126.57,273.765 126.5,273C 127.035,270.004 127.702,267.171 128.5,264.5 Z"/></g>
<g><path style="opacity:0.137" fill="#a0953c" d="M 143.5,270.5 C 143.573,272.027 142.906,273.027 141.5,273.5C 141.427,271.973 142.094,270.973 143.5,270.5 Z"/></g>
<g><path style="opacity:0.267" fill="#b9ab4f" d="M 137.5,271.5 C 137.573,273.027 136.906,274.027 135.5,274.5C 135.427,272.973 136.094,271.973 137.5,271.5 Z"/></g>
<g><path style="opacity:0.306" fill="#9f9544" d="M 223.5,271.5 C 224.234,272.708 224.567,274.041 224.5,275.5C 222.862,274.295 222.529,272.962 223.5,271.5 Z"/></g>
<g><path style="opacity:0.251" fill="#c1b45a" d="M 228.5,272.5 C 229.708,273.234 231.041,273.567 232.5,273.5C 232.083,274.124 231.416,274.457 230.5,274.5C 229.287,274.253 228.62,273.586 228.5,272.5 Z"/></g>
<g><path style="opacity:0.51" fill="#8b8644" d="M 79.5,274.5 C 81.4044,274.738 82.7377,275.738 83.5,277.5C 81.5956,277.262 80.2623,276.262 79.5,274.5 Z"/></g>
<g><path style="opacity:0.192" fill="#a09537" d="M 272.5,272.5 C 272.573,274.027 271.906,275.027 270.5,275.5C 270.427,273.973 271.094,272.973 272.5,272.5 Z"/></g>
<g><path style="opacity:0.024" fill="#9c9034" d="M 278.5,273.5 C 278.573,275.027 277.906,276.027 276.5,276.5C 276.427,274.973 277.094,273.973 278.5,273.5 Z"/></g>
<g><path style="opacity:0.031" fill="#8f8636" d="M 104.5,274.5 C 102.208,276.267 99.5418,277.267 96.5,277.5C 98.7916,275.733 101.458,274.733 104.5,274.5 Z"/></g>
<g><path style="opacity:0.067" fill="#a89b3e" d="M 263.5,250.5 C 261.516,258.105 259.682,265.772 258,273.5C 256.905,278.78 256.405,284.113 256.5,289.5C 255.595,276.015 257.929,263.015 263.5,250.5 Z"/></g>
<g><path style="opacity:0.02" fill="#928a3a" d="M 224.5,275.5 C 225.833,276.167 226.833,277.167 227.5,278.5C 225.5,278.5 224.5,277.5 224.5,275.5 Z"/></g>
<g><path style="opacity:0.137" fill="#9b913b" d="M 239.5,275.5 C 236.112,279.263 232.112,280.263 227.5,278.5C 231.811,278.674 235.811,277.674 239.5,275.5 Z"/></g>
<g><path style="opacity:0.282" fill="#baaa43" d="M 134.5,258.5 C 134.487,263.926 133.82,269.26 132.5,274.5C 133.425,275.562 134.425,275.562 135.5,274.5C 135.038,276.757 134.038,278.757 132.5,280.5C 131.398,272.911 132.065,265.578 134.5,258.5 Z"/></g>
<g><path style="opacity:0.275" fill="#aa9e48" d="M 270.5,275.5 C 270.573,277.027 269.906,278.027 268.5,278.5C 268.427,276.973 269.094,275.973 270.5,275.5 Z"/></g>
<g><path style="opacity:0.027" fill="#9a8f35" d="M 275.5,277.5 C 275.573,279.027 274.906,280.027 273.5,280.5C 273.427,278.973 274.094,277.973 275.5,277.5 Z"/></g>
<g><path style="opacity:0.506" fill="#b0a557" d="M 328.5,263.5 C 326.701,269.698 325.701,276.031 325.5,282.5C 324.751,281.469 324.085,280.302 323.5,279C 324.487,273.542 326.153,268.376 328.5,263.5 Z"/></g>
<g><path style="opacity:0.451" fill="#afa455" d="M 268.5,278.5 C 268.262,280.404 267.262,281.738 265.5,282.5C 265.738,280.596 266.738,279.262 268.5,278.5 Z"/></g>
<g><path style="opacity:0.004" fill="#91862b" d="M 273.5,280.5 C 273.262,282.404 272.262,283.738 270.5,284.5C 270.738,282.596 271.738,281.262 273.5,280.5 Z"/></g>
<g><path style="opacity:0.086" fill="#948a33" d="M 138.5,280.5 C 137.921,283.331 136.588,285.664 134.5,287.5C 135.079,284.669 136.412,282.336 138.5,280.5 Z"/></g>
<g><path style="opacity:0.365" fill="#827d3e" d="M 325.5,282.5 C 326.833,282.5 328.167,282.5 329.5,282.5C 327.968,284.781 326.634,284.781 325.5,282.5 Z"/></g>
<g><path style="opacity:0.424" fill="#b1a65a" d="M 265.5,282.5 C 265.573,284.027 264.906,285.027 263.5,285.5C 263.427,283.973 264.094,282.973 265.5,282.5 Z"/></g>
<g><path style="opacity:0.008" fill="#918834" d="M 270.5,284.5 C 269.92,286.749 268.587,288.415 266.5,289.5C 267.08,287.251 268.413,285.585 270.5,284.5 Z"/></g>
<g><path style="opacity:0.69" fill="#bdaf5b" d="M 261.5,287.5 C 261.142,289.701 259.808,291.035 257.5,291.5C 256.702,291.043 256.369,290.376 256.5,289.5C 258.514,289.608 260.18,288.942 261.5,287.5 Z"/></g>
<g><path style="opacity:0.016" fill="#827b25" d="M 266.5,289.5 C 266.167,291.833 264.833,293.167 262.5,293.5C 263.5,291.833 264.833,290.5 266.5,289.5 Z"/></g>
<g><path style="opacity:0.02" fill="#868031" d="M 262.5,293.5 C 262.179,295.048 261.179,295.715 259.5,295.5C 260.29,294.599 261.29,293.932 262.5,293.5 Z"/></g>
<g><path style="opacity:0.522" fill="#918b48" d="M 253.5,294.5 C 255.379,295.341 257.379,295.675 259.5,295.5C 259.134,296.695 258.301,297.361 257,297.5C 255.05,297.293 253.884,296.293 253.5,294.5 Z"/></g>
</svg>
